<?xml version="1.0" encoding="UTF-8"?>
<svg xmlns="http://www.w3.org/2000/svg" xmlns:xlink="http://www.w3.org/1999/xlink" width="30pt" height="30pt" viewBox="0 0 30 30" version="1.1">
<g id="surface1">
<path style=" stroke:none;fill-rule:nonzero;fill:rgb(0%,0%,0%);fill-opacity:1;" d="M 15.003906 7.308594 C 10.757812 7.308594 7.3125 10.753906 7.3125 15 C 7.3125 19.246094 10.757812 22.691406 15.003906 22.691406 C 19.25 22.691406 22.691406 19.246094 22.691406 15 C 22.699219 10.761719 19.265625 7.316406 15.027344 7.308594 Z M 15.003906 20 C 12.242188 20 10.003906 17.761719 10.003906 15 C 10.003906 12.238281 12.242188 10 15.003906 10 C 17.765625 10 20.003906 12.238281 20.003906 15 C 19.996094 17.757812 17.761719 19.996094 15.003906 20 Z M 24.800781 6.996094 C 24.800781 7.988281 24 8.789062 23.007812 8.789062 C 22.015625 8.789062 21.214844 7.988281 21.214844 6.996094 C 21.214844 6.003906 22.015625 5.203125 23.007812 5.203125 C 23.996094 5.199219 24.800781 6 24.800781 6.988281 Z M 29.894531 8.816406 C 29.78125 6.414062 29.230469 4.285156 27.472656 2.53125 C 25.710938 0.777344 23.589844 0.230469 21.1875 0.109375 C 18.710938 -0.03125 11.289062 -0.03125 8.8125 0.109375 C 6.417969 0.222656 4.289062 0.773438 2.527344 2.523438 C 0.769531 4.277344 0.226562 6.40625 0.105469 8.808594 C -0.0351562 11.285156 -0.0351562 18.707031 0.105469 21.183594 C 0.21875 23.585938 0.769531 25.714844 2.527344 27.46875 C 4.289062 29.222656 6.410156 29.769531 8.8125 29.890625 C 11.289062 30.03125 18.710938 30.03125 21.1875 29.890625 C 23.589844 29.777344 25.71875 29.230469 27.472656 27.46875 C 29.226562 25.707031 29.773438 23.585938 29.894531 21.183594 C 30.035156 18.707031 30.035156 11.292969 29.894531 8.816406 Z M 26.695312 23.839844 C 26.179688 25.144531 25.148438 26.179688 23.84375 26.691406 C 21.871094 27.476562 17.183594 27.292969 15.003906 27.292969 C 12.820312 27.292969 8.128906 27.46875 6.160156 26.691406 C 4.859375 26.179688 3.824219 25.144531 3.3125 23.839844 C 2.527344 21.867188 2.707031 17.183594 2.707031 15 C 2.707031 12.820312 2.535156 8.125 3.3125 6.160156 C 3.824219 4.855469 4.859375 3.824219 6.160156 3.308594 C 8.136719 2.523438 12.820312 2.707031 15.003906 2.707031 C 17.183594 2.707031 21.875 2.53125 23.84375 3.308594 C 25.148438 3.824219 26.179688 4.855469 26.695312 6.160156 C 27.476562 8.136719 27.296875 12.820312 27.296875 15 C 27.296875 17.183594 27.476562 21.875 26.695312 23.839844 Z M 26.695312 23.839844 "/>
</g>
</svg>
