<?xml version="1.0" encoding="UTF-8"?>
<svg xmlns="http://www.w3.org/2000/svg" xmlns:xlink="http://www.w3.org/1999/xlink" width="30pt" height="30pt" viewBox="0 0 30 30" version="1.1">
<g id="surface1">
<path style=" stroke:none;fill-rule:nonzero;fill:rgb(0%,0%,0%);fill-opacity:1;" d="M 15 0 C 6.714844 0 0 6.714844 0 15 C 0 23.285156 6.714844 30 15 30 C 23.285156 30 30 23.285156 30 15 C 30 6.714844 23.285156 0 15 0 Z M 22.367188 10.277344 L 19.90625 21.878906 C 19.722656 22.699219 19.234375 22.898438 18.550781 22.511719 L 14.800781 19.746094 L 12.992188 21.488281 C 12.792969 21.691406 12.621094 21.859375 12.234375 21.859375 L 12.503906 18.042969 L 19.453125 11.765625 C 19.753906 11.496094 19.386719 11.347656 18.984375 11.613281 L 10.398438 17.019531 L 6.695312 15.863281 C 5.890625 15.609375 5.871094 15.058594 6.863281 14.671875 L 21.328125 9.097656 C 21.996094 8.855469 22.585938 9.261719 22.367188 10.277344 Z M 22.367188 10.277344 "/>
</g>
</svg>
