<?xml version="1.0" encoding="UTF-8"?>
<svg xmlns="http://www.w3.org/2000/svg" xmlns:xlink="http://www.w3.org/1999/xlink" width="30pt" height="18pt" viewBox="0 0 30 18" version="1.1">
<g id="surface1">
<path style=" stroke:none;fill-rule:nonzero;fill:rgb(0%,0%,0%);fill-opacity:1;" d="M 29.308594 1.21875 C 29.511719 0.515625 29.308594 0 28.316406 0 L 25.039062 0 C 24.203125 0 23.820312 0.445312 23.613281 0.9375 C 23.613281 0.9375 21.945312 5.050781 19.585938 7.71875 C 18.820312 8.488281 18.472656 8.734375 18.054688 8.734375 C 17.847656 8.734375 17.53125 8.488281 17.53125 7.785156 L 17.53125 1.21875 C 17.53125 0.375 17.296875 0 16.605469 0 L 11.453125 0 C 10.929688 0 10.617188 0.394531 10.617188 0.757812 C 10.617188 1.558594 11.796875 1.742188 11.917969 3.992188 L 11.917969 8.875 C 11.917969 9.945312 11.730469 10.140625 11.3125 10.140625 C 10.199219 10.140625 7.496094 6.011719 5.890625 1.289062 C 5.570312 0.371094 5.25 0 4.410156 0 L 1.132812 0 C 0.199219 0 0.0078125 0.445312 0.0078125 0.9375 C 0.0078125 1.816406 1.121094 6.175781 5.191406 11.9375 C 7.902344 15.867188 11.71875 18 15.191406 18 C 17.28125 18 17.535156 17.527344 17.535156 16.710938 C 17.535156 12.953125 17.347656 12.601562 18.394531 12.601562 C 18.878906 12.601562 19.710938 12.847656 21.660156 14.742188 C 23.886719 16.992188 24.253906 18 25.5 18 L 28.777344 18 C 29.714844 18 30.1875 17.527344 29.914062 16.59375 C 29.289062 14.628906 25.078125 10.59375 24.886719 10.320312 C 24.402344 9.691406 24.542969 9.410156 24.886719 8.847656 C 24.894531 8.84375 28.894531 3.148438 29.308594 1.21875 Z M 29.308594 1.21875 "/>
</g>
</svg>
