<?xml version="1.0" encoding="UTF-8"?>
<svg xmlns="http://www.w3.org/2000/svg" xmlns:xlink="http://www.w3.org/1999/xlink" width="30pt" height="30pt" viewBox="0 0 30 30" version="1.1">
<g id="surface1">
<path style=" stroke:none;fill-rule:nonzero;fill:rgb(0%,0%,0%);fill-opacity:1;" d="M 25.507812 4.359375 C 22.726562 1.558594 18.941406 -0.0117188 14.992188 0 C 6.796875 0 0.128906 6.667969 0.128906 14.867188 C 0.125 17.476562 0.808594 20.039062 2.109375 22.300781 L 0 30 L 7.882812 27.929688 C 10.0625 29.117188 12.503906 29.742188 14.988281 29.738281 L 14.992188 29.738281 C 23.183594 29.738281 30 23.070312 30 14.871094 C 30 10.902344 28.3125 7.171875 25.507812 4.359375 Z M 14.992188 27.234375 C 12.777344 27.234375 10.605469 26.640625 8.699219 25.511719 L 8.25 25.246094 L 3.574219 26.472656 L 4.820312 21.910156 L 4.527344 21.441406 C 3.289062 19.472656 2.632812 17.191406 2.636719 14.867188 C 2.636719 8.054688 8.183594 2.511719 15 2.511719 C 18.277344 2.5 21.421875 3.804688 23.730469 6.132812 C 26.0625 8.472656 27.496094 11.570312 27.488281 14.871094 C 27.488281 21.691406 21.804688 27.234375 14.992188 27.234375 Z M 21.769531 17.980469 C 21.402344 17.792969 19.574219 16.894531 19.230469 16.773438 C 18.890625 16.652344 18.644531 16.585938 18.394531 16.960938 C 18.148438 17.335938 17.4375 18.167969 17.214844 18.421875 C 16.996094 18.675781 16.78125 18.703125 16.414062 18.515625 C 14.230469 17.425781 12.796875 16.566406 11.355469 14.097656 C 10.976562 13.441406 11.738281 13.488281 12.449219 12.066406 C 12.570312 11.820312 12.507812 11.605469 12.414062 11.417969 C 12.320312 11.230469 11.578125 9.402344 11.269531 8.660156 C 10.96875 7.933594 10.660156 8.035156 10.433594 8.023438 C 10.21875 8.007812 9.972656 8.007812 9.722656 8.007812 C 9.34375 8.019531 8.984375 8.1875 8.730469 8.472656 C 8.390625 8.847656 7.433594 9.742188 7.433594 11.570312 C 7.433594 13.398438 8.765625 15.167969 8.945312 15.414062 C 9.128906 15.664062 11.566406 19.414062 15.292969 21.027344 C 17.652344 22.042969 18.574219 22.132812 19.753906 21.957031 C 20.472656 21.851562 21.949219 21.058594 22.257812 20.191406 C 22.566406 19.320312 22.566406 18.574219 22.472656 18.421875 C 22.386719 18.253906 22.136719 18.160156 21.769531 17.980469 Z M 21.769531 17.980469 "/>
</g>
</svg>
